<?xml version="1.0" encoding="UTF-8"?>
<svg id="Layer_1" data-name="Layer 1" xmlns="http://www.w3.org/2000/svg" xmlns:xlink="http://www.w3.org/1999/xlink" viewBox="0 0 650 650">
  <defs>
    <style>
      .cls-1 {
        fill: url(#linear-gradient);
      }

      .cls-1, .cls-2, .cls-3, .cls-4, .cls-5, .cls-6, .cls-7, .cls-8, .cls-9, .cls-10, .cls-11 {
        stroke-width: 0px;
      }

      .cls-2 {
        fill: url(#linear-gradient-6);
      }

      .cls-3 {
        fill: url(#linear-gradient-5);
      }

      .cls-4 {
        fill: none;
      }

      .cls-5 {
        fill: #eca577;
      }

      .cls-6 {
        fill: #fff;
      }

      .cls-7 {
        fill: url(#linear-gradient-2);
      }

      .cls-8 {
        fill: url(#linear-gradient-7);
      }

      .cls-9 {
        fill: url(#linear-gradient-3);
      }

      .cls-10 {
        fill: url(#linear-gradient-4);
      }

      .cls-11 {
        fill: #1f1619;
      }
    </style>
    <linearGradient id="linear-gradient" x1="202.65" y1="417.17" x2="220.41" y2="386.41" gradientTransform="translate(33.84 -16.07) rotate(4.73)" gradientUnits="userSpaceOnUse">
      <stop offset="0" stop-color="#eca577" stop-opacity="0"/>
      <stop offset="1" stop-color="#eca577"/>
    </linearGradient>
    <linearGradient id="linear-gradient-2" x1="325.51" y1="308.42" x2="325.51" y2="190.72" gradientUnits="userSpaceOnUse">
      <stop offset="0" stop-color="#f88938" stop-opacity="0"/>
      <stop offset=".12" stop-color="#f88938" stop-opacity=".02"/>
      <stop offset=".25" stop-color="#f88938" stop-opacity=".07"/>
      <stop offset=".38" stop-color="#f88938" stop-opacity=".15"/>
      <stop offset=".51" stop-color="#f88938" stop-opacity=".27"/>
      <stop offset=".64" stop-color="#f88938" stop-opacity=".42"/>
      <stop offset=".77" stop-color="#f88938" stop-opacity=".6"/>
      <stop offset=".9" stop-color="#f88938" stop-opacity=".82"/>
      <stop offset="1" stop-color="#f88938"/>
    </linearGradient>
    <linearGradient id="linear-gradient-3" x1="324.99" y1="446.01" x2="324.99" y2="405.41" gradientUnits="userSpaceOnUse">
      <stop offset="0" stop-color="#eca577" stop-opacity=".7"/>
      <stop offset="1" stop-color="#eca577"/>
    </linearGradient>
    <linearGradient id="linear-gradient-4" x1="221.15" y1="382.47" x2="259.37" y2="316.27" gradientUnits="userSpaceOnUse">
      <stop offset="0" stop-color="#c3ac68" stop-opacity=".3"/>
      <stop offset="1" stop-color="#c3ac68"/>
    </linearGradient>
    <linearGradient id="linear-gradient-5" x1="-8507.4" y1="417.17" x2="-8489.64" y2="386.41" gradientTransform="translate(139.36 -8100.93) rotate(-94.73) scale(1 -1)" gradientUnits="userSpaceOnUse">
      <stop offset="0" stop-color="#eca577" stop-opacity="0"/>
      <stop offset="1" stop-color="#eca577"/>
    </linearGradient>
    <linearGradient id="linear-gradient-6" x1="-8450.68" y1="316.27" x2="-8488.9" y2="382.47" gradientTransform="translate(-8059.04) rotate(-180) scale(1 -1)" gradientUnits="userSpaceOnUse">
      <stop offset="0" stop-color="#c3ac68"/>
      <stop offset="1" stop-color="#c3ac68" stop-opacity=".3"/>
    </linearGradient>
    <linearGradient id="linear-gradient-7" x1="324.86" y1="400.55" x2="324.86" y2="376.76" gradientUnits="userSpaceOnUse">
      <stop offset="0" stop-color="#eca577"/>
      <stop offset="1" stop-color="#eca577" stop-opacity=".3"/>
    </linearGradient>
  </defs>
  <path class="cls-6" d="m567.19,216.72c-7.99,50.28-28.76,97.7-53.26,142.09,5.55-9.46,10.91-19.09,16.03-28.87-.89,1.8-1.78,3.6-2.69,5.39-.03.64-.09,1.3-.14,1.94-1.01,12-4.67,26.64-8.15,38.18,6.57,4.37,12.9,7.03,22.51,7.39-9.32,9.35-20.73,15.62-29.59,16.96,3.32,2.05,21.14,5.41,28.02,4.6-12.08,6.85-26.67,9.77-40.39,11.39,4.13,3.2,14.07,7.64,19.46,8.01h-.01c-4.45,3.52-9.5,5.78-14.69,7.96-6.6,2.58-13.4,4.7-20.32,6.27-33.99,37.75-84.06,55.57-131.69,69.5-8.68,2.55-17.71,3.82-26.76,3.82s-18.08-1.27-26.75-3.82c-47.63-13.94-97.7-31.76-131.7-69.5-6.91-1.56-13.71-3.69-20.31-6.27-5.19-2.18-10.24-4.44-14.69-7.95h-.01c5.39-.39,15.33-4.83,19.46-8.03-13.73-1.62-28.31-4.54-40.4-11.39,6.87.81,24.71-2.56,28.03-4.6-8.86-1.34-20.28-7.6-29.6-16.96,9.62-.37,15.95-3.02,22.53-7.39-3.48-11.53-7.14-26.18-8.15-38.18-.01-.02-.01-.06-.01-.08,3.94,7.29,8,14.5,12.17,21.62-4.22-7.65-8.32-15.4-12.29-23.23,0-.08-6.01-12.31-6.01-12.24-16.19-33.94-29.06-69.49-34.96-106.62-3.41-22.65-6.2-67.6,20.37-76.84,38.68-10.65,109.03,39.68,140.05,65.72-5.05,3.08-9.94,6.41-14.6,10.02,46.52-21.2,96.12-31.41,146.17-17.49,16.18,4.2,31.93,10.39,47.61,17.41-4.79-3.75-9.83-7.22-15.05-10.42,31.3-26.16,101.05-75.83,139.48-65.24,26.57,9.24,23.76,54.19,20.37,76.84Z"/>
  <path class="cls-11" d="m207.55,280.94c18.34-12.49,44.16-16.67,62.72-2.25,5.99,4.47,10.86,10.17,14.54,16.45-5.14-5.15-10.51-9.91-16.48-13.59-19.04-12.14-40.72-7.96-60.78-.61h0Z"/>
  <path class="cls-11" d="m443.46,280.94c-20.06-7.35-41.74-11.53-60.78.61-5.97,3.68-11.34,8.43-16.48,13.59,3.68-6.28,8.55-11.97,14.54-16.45,18.55-14.42,44.38-10.24,62.72,2.25h0Z"/>
  <ellipse class="cls-1" cx="211.53" cy="401.79" rx="22.93" ry="14.63" transform="translate(-32.4 18.8) rotate(-4.73)"/>
  <path class="cls-7" d="m375.11,190.72c0,49.79-32.41,117.7-49.6,117.7-17.19,0-49.6-67.91-49.6-117.7h99.2Z"/>
  <path class="cls-9" d="m338.87,425.25c0,8.78-9.07,20.76-13.88,20.76-4.81,0-13.88-11.98-13.88-20.76l7.03-5.51,4.34-6.84,2.01-7.5h.72l2.31,8.18,4.13,6.51,7.23,5.15Z"/>
  <g>
    <path class="cls-6" d="m275.95,352.45c-.9,21.19-17.62,38.08-38.12,38.08s-38.16-17.86-38.16-39.88,17.08-39.88,38.16-39.88c1.08,0,2.15.06,3.2.15-16.54,1.63-29.5,16.87-29.5,35.44,0,19.66,14.53,35.59,32.44,35.59,16.03,0,29.33-12.75,31.97-29.5Z"/>
    <ellipse class="cls-10" cx="240.26" cy="349.37" rx="37.02" ry="38.6"/>
    <path class="cls-11" d="m278.46,360.93c-.28-2.52-.29-5.06-.1-7.6.08-1.11.13-2.24.13-3.37,0-23.74-18.41-42.97-41.12-42.97-10.86,0-20.89,4.55-28.24,11.74-9.9,9.64-17.39,7.73-19.26,6.95,1.42.78,5.61,3.95,6.47,14.63.18,2.19.17,4.39.02,6.58-.07,1.02-.1,2.04-.1,3.07,0,23.73,18.41,42.97,41.12,42.97,11.12,0,21.06-4.47,28.46-11.96,9.73-9.27,17.12-7.42,18.98-6.65-1.36-.75-5.27-3.7-6.35-13.39Zm-40.62,29.6c-21.07,0-38.16-17.86-38.16-39.88s17.08-39.88,38.16-39.88c1.08,0,2.15.06,3.2.15-16.54,1.63-29.5,16.87-29.5,35.44,0,19.66,14.53,35.59,32.44,35.59,16.03,0,29.33-12.75,31.97-29.5-.9,21.19-17.62,38.08-38.12,38.08Z"/>
    <path class="cls-4" d="m196.48,345.35c-.03,1.43-.1,2.96-.23,4.6"/>
    <path class="cls-4" d="m284.84,374.32s-.02,0-.03-.01c.01,0,.02,0,.03.01.28.15.44.21.44.21,0,0-.15-.08-.44-.21"/>
    <circle class="cls-6" cx="249.56" cy="331.13" r="14.37"/>
  </g>
  <ellipse class="cls-3" cx="439.48" cy="401.79" rx="14.63" ry="22.93" transform="translate(2.83 806.66) rotate(-85.27)"/>
  <g>
    <path class="cls-6" d="m375.06,352.45c.9,21.19,17.62,38.08,38.12,38.08,21.07,0,38.16-17.86,38.16-39.88,0-22.02-17.08-39.88-38.16-39.88-1.08,0-2.15.06-3.2.15,16.54,1.63,29.5,16.87,29.5,35.44,0,19.66-14.53,35.59-32.44,35.59-16.03,0-29.33-12.75-31.97-29.5Z"/>
    <ellipse class="cls-2" cx="410.75" cy="349.37" rx="37.02" ry="38.6"/>
    <path class="cls-11" d="m366.21,374.31c1.87-.77,9.25-2.62,18.98,6.65,7.4,7.49,17.34,11.96,28.46,11.96,22.71,0,41.12-19.24,41.12-42.97,0-1.04-.03-2.06-.1-3.07-.15-2.19-.16-4.39.02-6.58.86-10.68,5.05-13.86,6.47-14.63-1.88.78-9.37,2.69-19.26-6.95-7.35-7.19-17.38-11.74-28.24-11.74-22.71,0-41.12,19.24-41.12,42.97,0,1.13.05,2.26.13,3.37.19,2.53.17,5.08-.1,7.6-1.07,9.69-4.99,12.64-6.35,13.39Zm8.85-21.86c2.64,16.75,15.94,29.5,31.97,29.5,17.91,0,32.44-15.93,32.44-35.59,0-18.57-12.96-33.81-29.5-35.44,1.05-.09,2.12-.15,3.2-.15,21.07,0,38.16,17.86,38.16,39.88,0,22.02-17.08,39.88-38.16,39.88-20.5,0-37.22-16.89-38.12-38.08Z"/>
    <path class="cls-4" d="m454.76,349.95c-.14-1.64-.21-3.17-.23-4.6"/>
    <path class="cls-4" d="m366.18,374.32c-.29.12-.44.21-.44.21,0,0,.16-.05.44-.21.01,0,.02,0,.03-.01-.01,0-.02,0-.03.01"/>
    <circle class="cls-6" cx="401.45" cy="331.13" r="14.37"/>
  </g>
  <g>
    <path class="cls-11" d="m370.74,419.88s-.16.19-.45.55c-.29.36-.75.87-1.37,1.5-.63.61-1.41,1.35-2.4,2.09-.48.39-1.03.74-1.61,1.14-.59.36-1.21.75-1.9,1.1-1.35.71-2.9,1.36-4.59,1.87-1.69.5-3.54.86-5.48,1-.24.01-.49.03-.73.04l-.37.02h-.18s-.05.01-.05.01h-.02s-.05,0-.05,0h-.09c-.24,0-.47,0-.71,0h-.36s-.18,0-.18,0c-.06,0-.13,0-.19,0-.26-.01-.51-.03-.77-.04-.26-.02-.52-.02-.77-.06-.25-.03-.5-.06-.76-.09l-.38-.04-.38-.06c-2.02-.31-4.04-.87-5.97-1.64l-.36-.14-.36-.16-.71-.32c-.47-.22-.93-.47-1.39-.71-.45-.26-.9-.51-1.33-.79-.22-.14-.43-.28-.64-.42l-.32-.21-.31-.23c-.41-.3-.83-.6-1.22-.92-.2-.16-.39-.32-.59-.48-.19-.17-.37-.34-.56-.5-.18-.17-.38-.33-.55-.51-.18-.17-.35-.35-.53-.52-.36-.34-.67-.72-1-1.07-1.29-1.45-2.36-3-3.23-4.54-.86-1.54-1.51-3.09-1.98-4.54-.06-.18-.12-.36-.17-.54-.05-.18-.1-.36-.15-.54-.09-.35-.2-.69-.27-1.04-.07-.34-.14-.67-.21-.99-.06-.32-.1-.64-.15-.94-.02-.15-.05-.3-.07-.45-.02-.15-.03-.29-.05-.44-.03-.29-.06-.56-.08-.83-.03-.53-.05-1.02-.06-1.46,0-.44.01-.83.02-1.17,0-.17.01-.33.03-.47.01-.14.02-.27.03-.39.04-.47.06-.71.06-.71,0,0,.03.25.1.71.01.12.03.24.05.39.02.14.04.3.07.46.06.33.13.71.2,1.13.09.42.19.88.3,1.39.07.25.13.51.2.78.03.13.07.27.11.41.04.14.09.28.13.42.09.28.18.57.27.87.11.3.22.6.33.91.11.31.24.62.37.94.07.16.13.32.2.49.07.16.15.32.23.49.6,1.31,1.34,2.68,2.26,4.04.91,1.36,2,2.7,3.25,3.96.32.31.63.63.96.93.17.15.33.3.5.46.17.15.35.29.52.44.18.14.35.29.53.44.18.14.37.27.55.41.36.29.74.54,1.12.81l.29.2.3.18c.2.12.39.25.59.37.19.13.4.23.61.35l.61.35c.42.21.83.43,1.26.63l.64.29.32.14.33.13c1.74.71,3.55,1.23,5.37,1.56l.34.06.34.05c.23.03.46.06.68.1.23.04.45.05.67.08.22.02.44.04.66.07.06,0,.11.01.17.02h.18s.36.02.36.02c.24.01.47.02.71.03h.09s.05,0,0,0h.02s.04,0,.04,0h.17s.34,0,.34,0c.22,0,.45,0,.67,0,1.77-.04,3.49-.24,5.09-.57,1.6-.33,3.09-.79,4.44-1.31.68-.25,1.3-.55,1.91-.81.3-.15.59-.29.87-.43.07-.03.14-.07.21-.1.07-.04.13-.07.2-.11.13-.07.27-.15.4-.22.53-.27.99-.58,1.44-.84.22-.13.42-.27.62-.41.2-.13.39-.26.57-.38.18-.12.34-.24.49-.36.16-.11.3-.22.44-.32.28-.19.49-.38.68-.52.37-.29.56-.44.56-.44Z"/>
    <path class="cls-11" d="m278.97,419.9s.2.15.56.44c.18.14.4.33.68.52.14.1.28.2.44.32.16.11.31.24.49.36.18.12.37.24.57.38.2.13.4.28.62.41.44.26.91.57,1.44.84.13.07.26.14.4.22.07.04.13.07.2.11.07.03.14.07.21.1.28.14.57.28.87.43.61.27,1.23.57,1.91.81,1.34.52,2.84.98,4.44,1.31,1.6.34,3.32.54,5.09.57.22,0,.44,0,.67,0h.34s.17,0,.17,0h.04s.02,0,.02,0c-.06,0,0,0,0,0h.09c.24-.01.47-.03.71-.04l.36-.02h.18c.06-.01.11-.02.17-.02.22-.02.44-.04.66-.07.22-.02.44-.04.67-.08.23-.03.46-.06.68-.1l.34-.05.34-.06c1.82-.33,3.64-.85,5.37-1.56l.33-.13.32-.14.64-.29c.42-.2.84-.42,1.26-.63l.61-.35c.2-.12.41-.22.61-.35.2-.12.4-.25.59-.37l.3-.18.29-.2c.38-.26.76-.52,1.12-.81.18-.14.37-.28.55-.41.18-.15.35-.29.53-.44.17-.15.35-.29.52-.44.17-.15.33-.3.5-.46.34-.3.65-.62.96-.93,1.24-1.26,2.33-2.6,3.25-3.96.92-1.36,1.66-2.73,2.26-4.04.08-.16.15-.32.23-.49.07-.16.13-.33.2-.49.13-.32.27-.63.37-.94.11-.31.22-.61.33-.91.09-.3.18-.59.27-.87.04-.14.09-.28.13-.42.04-.14.07-.28.11-.41.07-.27.14-.53.2-.78.11-.51.21-.97.3-1.39.07-.42.14-.8.2-1.13.03-.17.05-.32.07-.46.02-.14.03-.27.05-.39.06-.46.1-.71.1-.71,0,0,.02.25.06.71,0,.12.02.25.03.39.01.14.02.3.03.47,0,.34.02.73.02,1.17-.01.44-.03.92-.06,1.46-.03.26-.05.54-.08.83-.01.14-.03.29-.05.44-.02.15-.04.3-.07.45-.05.3-.1.62-.15.94-.07.32-.14.65-.21.99-.06.34-.17.68-.27,1.04-.05.18-.1.36-.15.54-.05.18-.12.36-.17.54-.47,1.46-1.12,3-1.98,4.54-.86,1.54-1.94,3.09-3.23,4.54-.33.36-.64.73-1,1.07-.18.17-.35.35-.53.52-.18.18-.37.34-.55.51-.19.17-.37.34-.56.5-.19.16-.39.32-.59.48-.39.33-.8.62-1.22.92l-.31.23-.32.21c-.21.14-.43.28-.64.42-.43.28-.89.53-1.33.79-.46.24-.92.48-1.39.71l-.71.32-.36.16-.36.14c-1.93.78-3.95,1.34-5.97,1.64l-.38.06-.38.04c-.25.03-.51.06-.76.09-.25.03-.51.04-.77.06-.26.01-.51.03-.77.04-.06,0-.13,0-.19,0h-.18s-.36,0-.36,0c-.24,0-.47,0-.71,0h-.09s-.05,0-.05,0h-.02s-.05,0-.05,0h-.18s-.37-.03-.37-.03c-.24-.01-.49-.03-.73-.04-1.94-.14-3.78-.5-5.48-1-1.7-.5-3.24-1.16-4.59-1.87-.68-.35-1.31-.73-1.9-1.1-.58-.39-1.13-.75-1.61-1.14-.99-.74-1.77-1.47-2.4-2.09-.62-.63-1.08-1.14-1.37-1.5-.3-.36-.45-.55-.45-.55Z"/>
  </g>
  <g>
    <path class="cls-11" d="m341.11,373.7c-4.08-4.07-10.72-4.07-14.79,0l-1.46,1.46-1.46-1.46c-4.08-4.07-10.7-4.07-14.79,0-1.3,1.31-2.21,2.88-2.69,4.65-.25.87-.37,1.8-.37,2.75,0,2.79,1.09,5.42,3.06,7.4l16.26,16.21,16.26-16.21c.46-.46.86-.95,1.2-1.45,2.89-4.16,2.39-9.77-1.2-13.35Zm-1.24,11.68l-.02.02c-.22.35-.5.68-.83,1l-14.17,14.14-14.16-14.14c-1.42-1.4-2.2-3.29-2.2-5.3,0-.68.09-1.34.27-1.96.34-1.28.99-2.41,1.93-3.34,1.46-1.46,3.38-2.2,5.3-2.2s3.85.74,5.32,2.2l3.54,3.54,3.54-3.54c2.94-2.94,7.69-2.94,10.63,0,2.57,2.57,2.92,6.59.84,9.58Z"/>
    <path class="cls-8" d="m338.11,387.17h-.01c-.2.33-.44.61-.73.9l-12.51,12.48-12.5-12.48c-1.25-1.24-1.94-2.91-1.94-4.68,0-.6.08-1.19.23-1.73.3-1.13.87-2.12,1.71-2.94,1.29-1.29,2.98-1.94,4.68-1.94s3.4.65,4.69,1.94l3.13,3.13,3.13-3.13c2.59-2.59,6.79-2.59,9.38,0,2.27,2.27,2.58,5.81.74,8.46Z"/>
  </g>
  <path class="cls-11" d="m534.37,323.81c19.1-37.77,31.44-72.53,37.67-106.32,4.64-26.57,7.87-72.9-22.95-84.39-4.58-1.45-9.71-2.21-15.25-2.21-23.41,0-54.42,12.41-94.79,37.96-13.43,8.63-27.23,18.64-41.09,29.7-6.68-3.49-13.6-6.49-20.48-8.96-15.8-5.93-32.76-8.92-50.34-8.92-25.55,0-51.3,6.35-74.54,18.34-13.7-11-28.08-21.43-41.68-30.16-40.37-25.55-71.35-37.96-94.76-37.96-5.56,0-10.7.76-15.31,2.21-30.75,11.49-27.52,57.82-22.88,84.42,6.32,34.37,19,69.8,38.75,108.39.46,13.17,3.49,30.29,8.33,47.12-5.33,3.36-14.49,5.56-25.25,6.03l-2.47.13,1.71,1.74c.1.13,9.94,10.34,23.24,17.45-5.76.63-10.63.89-15.74.89-2.6,0-5.27-.07-8.2-.23l-3.82-.16,8.2,5.76c9.19,6.49,20.74,10.9,35.2,13.43-4.35,1.45-10.11,2.6-13.86,2.63h-2.8l2.04,1.91c8.96,8.23,22.85,14.78,41.32,19.43,18.6,20.94,43.69,35.33,63.48,45.5,18.41,9.45,39.58,18.04,62.95,25.55,3.49,1.12,7.14,2.17,11.19,3.19,7.57,1.81,15.41,2.77,23.25,2.8,7.87-.03,15.71-.99,23.28-2.8,4.05-1.02,7.71-2.07,11.2-3.19,23.41-7.51,44.58-16.1,62.92-25.55,19.82-10.17,44.91-24.53,63.51-45.5,18.47-4.64,32.37-11.19,41.32-19.43l2.04-1.91h-2.8c-3.75-.03-9.55-1.19-13.86-2.63,14.45-2.54,25.98-6.95,35.2-13.43l8.2-5.76-3.82.16c-2.93.16-5.6.23-8.2.23-5.1,0-9.98-.26-15.74-.89,13.27-7.11,23.15-17.32,23.25-17.45l1.71-1.74-2.47-.13c-10.8-.46-19.92-2.67-25.25-6.03,4.87-16.96,7.9-34.18,8.33-47.31.03-.63.03-1.28.07-1.91Zm-7.24,13.47c-1.02,11.98-4.68,26.64-8.16,38.16,6.59,4.38,12.91,7.05,22.52,7.41-9.32,9.35-20.74,15.61-29.6,16.96,3.33,2.04,21.17,5.4,28.02,4.61-12.05,6.85-26.67,9.78-40.37,11.39,4.12,3.19,14.03,7.61,19.43,8-4.45,3.52-9.48,5.76-14.68,7.97-6.59,2.57-13.4,4.71-20.32,6.26-34.01,37.73-84.06,55.58-131.7,69.5-8.66,2.54-17.71,3.82-26.77,3.82s-18.08-1.28-26.74-3.82c-47.64-13.93-97.69-31.77-131.7-69.5-6.91-1.55-13.73-3.69-20.31-6.26-5.2-2.21-10.24-4.44-14.68-7.97,5.4-.4,15.31-4.81,19.43-8-13.7-1.61-28.31-4.54-40.4-11.39,6.88.79,24.73-2.57,28.05-4.61-8.86-1.35-20.28-7.61-29.6-16.96,9.61-.36,15.94-3.03,22.52-7.41-3.49-11.52-7.14-26.18-8.17-38.16v-.1c3.95,7.31,8,14.52,12.15,21.63-4.21-7.64-8.3-15.41-12.28-23.25,0-.07-5.96-12.25-5.99-12.25-16.2-33.91-29.07-69.47-34.97-106.61-3.42-22.65-6.19-67.59,20.38-76.85,38.65-10.63,109.01,39.71,140.03,65.72-5.04,3.09-9.95,6.42-14.59,10.04,46.52-21.2,96.11-31.44,146.15-17.52,16.2,4.21,31.94,10.4,47.61,17.42-4.81-3.75-9.85-7.21-15.05-10.4,31.28-26.18,101.05-75.83,139.47-65.26,26.57,9.25,23.77,54.19,20.38,76.85-8,50.28-28.78,97.69-53.27,142.1,4.58-7.84,9.02-15.84,13.33-23.87-.03.63-.1,1.68-.13,2.34Z"/>
  <path class="cls-4" d="m132.05,423.82h-.01"/>
  <path class="cls-4" d="m518.98,423.81h-.01"/>
  <path class="cls-5" d="m148.75,253.08c1.21-9.79,17.81-24.06,17.81-24.06-11.1-.39-27.22,17.29-27.22,17.29,6.17-29.06,28.83-28.24,28.83-28.24-11.34-6.79-37.03-3.19-37.03-3.19,23.13-14.83,48.02-7.6,48.02-7.6-19.47-14.27-47.01-16.48-47.01-16.48,26.18-6.14,49.8,8.83,49.8,8.83l3.79,3.05c-28.21-26.32-57.76-43.41-70.11-33.49-16.35,13.14-10.03,71.04,23.29,140.91,4.28-29.46,12.32-51.59,23.52-67.57-6.93,4.7-13.69,10.53-13.69,10.53Z"/>
  <path class="cls-5" d="m500.96,253.08c-1.21-9.79-17.81-24.06-17.81-24.06,11.1-.39,27.22,17.29,27.22,17.29-6.17-29.06-28.83-28.24-28.83-28.24,11.34-6.79,37.03-3.19,37.03-3.19-23.13-14.83-48.02-7.6-48.02-7.6,19.47-14.27,47.01-16.48,47.01-16.48-26.18-6.14-49.8,8.83-49.8,8.83l-3.79,3.05c28.21-26.32,57.76-43.41,70.11-33.49,16.35,13.14,10.03,71.04-23.29,140.91-4.28-29.46-12.32-51.59-23.52-67.57,6.93,4.7,13.69,10.53,13.69,10.53Z"/>
</svg>