<?xml version="1.0" encoding="UTF-8"?>
<svg id="Layer_1" data-name="Layer 1" xmlns="http://www.w3.org/2000/svg" xmlns:xlink="http://www.w3.org/1999/xlink" viewBox="0 0 650 650">
  <defs>
    <style>
      .cls-1 {
        fill: url(#linear-gradient);
      }

      .cls-1, .cls-2, .cls-3, .cls-4, .cls-5, .cls-6, .cls-7, .cls-8, .cls-9, .cls-10, .cls-11, .cls-12, .cls-13, .cls-14, .cls-15 {
        stroke-width: 0px;
      }

      .cls-2 {
        fill: #f3f4f2;
      }

      .cls-3 {
        fill: url(#linear-gradient-6);
      }

      .cls-4 {
        fill: url(#linear-gradient-5);
      }

      .cls-5 {
        fill: none;
      }

      .cls-6 {
        fill: #eca577;
      }

      .cls-7 {
        fill: #fff;
      }

      .cls-8 {
        fill: url(#linear-gradient-2);
      }

      .cls-9 {
        fill: url(#linear-gradient-7);
      }

      .cls-10 {
        fill: url(#linear-gradient-3);
      }

      .cls-11 {
        fill: #bcbcbc;
      }

      .cls-12 {
        fill: url(#linear-gradient-9);
        opacity: .75;
      }

      .cls-13 {
        fill: url(#linear-gradient-8);
      }

      .cls-14 {
        fill: url(#linear-gradient-4);
      }

      .cls-15 {
        fill: #1f1619;
      }
    </style>
    <linearGradient id="linear-gradient" x1="326.55" y1="378.4" x2="326.55" y2="200.18" gradientUnits="userSpaceOnUse">
      <stop offset="0" stop-color="#eca577" stop-opacity="0"/>
      <stop offset=".09" stop-color="#eca577" stop-opacity=".04"/>
      <stop offset=".24" stop-color="#eca577" stop-opacity=".14"/>
      <stop offset=".42" stop-color="#eca577" stop-opacity=".31"/>
      <stop offset=".64" stop-color="#eca577" stop-opacity=".54"/>
      <stop offset=".88" stop-color="#eca577" stop-opacity=".84"/>
      <stop offset="1" stop-color="#eca577"/>
    </linearGradient>
    <linearGradient id="linear-gradient-2" x1="246.75" y1="314.08" x2="258.34" y2="294.02" gradientTransform="translate(25.92 -19.78) rotate(4.73)" gradientUnits="userSpaceOnUse">
      <stop offset="0" stop-color="#eca577" stop-opacity="0"/>
      <stop offset="1" stop-color="#eca577"/>
    </linearGradient>
    <linearGradient id="linear-gradient-3" x1="326.88" y1="243.15" x2="326.88" y2="166.39" gradientUnits="userSpaceOnUse">
      <stop offset="0" stop-color="#f88938" stop-opacity="0"/>
      <stop offset=".12" stop-color="#f88938" stop-opacity=".02"/>
      <stop offset=".25" stop-color="#f88938" stop-opacity=".07"/>
      <stop offset=".38" stop-color="#f88938" stop-opacity=".15"/>
      <stop offset=".51" stop-color="#f88938" stop-opacity=".27"/>
      <stop offset=".64" stop-color="#f88938" stop-opacity=".42"/>
      <stop offset=".77" stop-color="#f88938" stop-opacity=".6"/>
      <stop offset=".9" stop-color="#f88938" stop-opacity=".82"/>
      <stop offset="1" stop-color="#f88938"/>
    </linearGradient>
    <linearGradient id="linear-gradient-4" x1="326.55" y1="332.88" x2="326.55" y2="306.41" gradientUnits="userSpaceOnUse">
      <stop offset="0" stop-color="#eca577" stop-opacity=".7"/>
      <stop offset="1" stop-color="#eca577"/>
    </linearGradient>
    <linearGradient id="linear-gradient-5" x1="258.82" y1="291.44" x2="283.75" y2="248.27" gradientUnits="userSpaceOnUse">
      <stop offset="0" stop-color="#c3ac68" stop-opacity=".3"/>
      <stop offset="1" stop-color="#c3ac68"/>
    </linearGradient>
    <linearGradient id="linear-gradient-6" x1="-7126.04" y1="314.08" x2="-7114.46" y2="294.02" gradientTransform="translate(117.3 -6817.04) rotate(-94.73) scale(1 -1)" gradientUnits="userSpaceOnUse">
      <stop offset="0" stop-color="#eca577" stop-opacity="0"/>
      <stop offset="1" stop-color="#eca577"/>
    </linearGradient>
    <linearGradient id="linear-gradient-7" x1="-7089.05" y1="248.27" x2="-7113.98" y2="291.44" gradientTransform="translate(-6719.04) rotate(-180) scale(1 -1)" gradientUnits="userSpaceOnUse">
      <stop offset="0" stop-color="#c3ac68"/>
      <stop offset="1" stop-color="#c3ac68" stop-opacity=".3"/>
    </linearGradient>
    <linearGradient id="linear-gradient-8" x1="326.46" y1="303.24" x2="326.46" y2="287.73" gradientUnits="userSpaceOnUse">
      <stop offset="0" stop-color="#eca577"/>
      <stop offset="1" stop-color="#eca577" stop-opacity=".3"/>
    </linearGradient>
    <linearGradient id="linear-gradient-9" x1="346.59" y1="409.01" x2="397.8" y2="320.33" gradientUnits="userSpaceOnUse">
      <stop offset="0" stop-color="#fff" stop-opacity="0"/>
      <stop offset="1" stop-color="#fff"/>
    </linearGradient>
  </defs>
  <circle class="cls-2" cx="325" cy="325" r="325"/>
  <path class="cls-7" d="m502.47,186.44c8.93-51.11-11.53-66.87-24.52-71.71-.24-.09-.48-.17-.72-.25-4.49-1.42-9.36-2.14-14.48-2.14-18.46,0-40.66,8.61-69.95,27.14-6.69,4.3-13.6,9.15-20.63,14.49-2.04-.86-4.09-1.66-6.12-2.39-11.99-4.5-24.81-6.78-38.11-6.78-15.81,0-31.74,3.26-46.61,9.48-7.1-5.4-14.28-10.45-21.15-14.86-29.2-18.48-51.39-27.09-69.84-27.09-5.11,0-9.99.72-14.49,2.13-.26.08-.51.17-.76.26-12.97,4.84-33.39,20.6-24.45,71.86,4.23,22.98,12.49,46.55,25.22,71.95.35,4.87,1.08,10.18,2.16,15.72l-.77.04c-5.9.32-11.07,4.05-13.21,9.56-1.26,3.25-1.34,6.76-.33,9.96-.71,1.07-1.29,2.24-1.72,3.49-2.15,6.32.13,13.3,5.59,17.14l5.32,3.74c2.2,1.55,4.52,2.96,6.99,4.22.8,1.84,1.98,3.53,3.51,4.96l1.42,1.33c.95.88,1.97,1.72,3.03,2.55-5.11,5.62-8.25,13.05-8.25,21.22v109.05c0,.23,0,.47,0,.71-2.75,1.49-5.19,3.56-7.18,6.12-4.37,5.64-5.85,12.84-4.07,19.76l2.28,8.82c2.62,10.12,11.74,17.18,22.19,17.18h266.4c10.46,0,19.58-7.07,22.19-17.19l2.28-8.84c1.78-6.91.29-14.11-4.07-19.75-1.99-2.56-4.43-4.63-7.18-6.12,0-.23,0-.47,0-.7v-109.05c0-7.82-2.87-14.96-7.58-20.49,1.46-1.08,2.86-2.19,4.14-3.37l1.33-1.24c1.53-1.43,2.71-3.12,3.51-4.97,2.45-1.26,4.77-2.66,6.96-4.2l5.35-3.76c5.46-3.84,7.74-10.82,5.59-17.14-.43-1.25-1.01-2.42-1.72-3.49,1-3.2.93-6.71-.33-9.96-2.14-5.5-7.31-9.24-13.21-9.56l-.77-.04c1.19-6.12,1.96-11.97,2.25-17.23,12.3-24.86,20.31-47.94,24.49-70.59Zm-63.68,273.03h-225.51v-104.94h12.84c10.29,7.99,21.14,14.08,30.36,18.82,12.73,6.54,27.31,12.46,43.33,17.6,2.67.86,5.36,1.63,8.4,2.39,6.1,1.46,12.35,2.21,18.59,2.24h.13c6.25-.03,12.51-.78,18.79-2.28,2.86-.72,5.55-1.49,8.22-2.35,16.07-5.15,30.64-11.08,43.31-17.6,9.23-4.74,20.1-10.83,30.39-18.82h11.15v104.94Zm-138.45-104.94h53.06c-4.48,1.43-8.94,2.78-13.31,4.06-4.27,1.25-8.73,1.89-13.23,1.89s-8.94-.63-13.22-1.89c-4.36-1.28-8.82-2.62-13.3-4.06Zm169.32-173.56c-4.25,26.7-14.75,54.59-33.06,87.78-3.04,5.51-2.26,12.11,1.48,16.72-.18,1.98.03,3.96.61,5.82-2.5,2.12-4.29,5.05-4.98,8.41-3.76,1.86-6.65,5.25-7.81,9.44-.4,1.42-.57,2.87-.55,4.3-2.41.83-4.58,2.25-6.29,4.16-1.01,1.12-2.06,2.18-3.12,3.24h-178.12c-1.06-1.06-2.11-2.12-3.12-3.24-1.72-1.9-3.88-3.33-6.29-4.16.03-1.43-.15-2.88-.55-4.3-1.17-4.19-4.05-7.58-7.81-9.44-.69-3.36-2.48-6.29-4.98-8.41.65-2.11.84-4.36.52-6.61,3.22-4.56,3.76-10.73.88-15.94-2.51-4.54-5.05-9.35-7.77-14.71h-.01c-.47-1.03-1.08-2.26-1.83-3.8-.6-1.24-1.24-2.54-1.97-3.82l.07-.03c-11.23-23.5-18.27-44.9-21.51-65.3-2.91-19.24-.11-31.71,3.06-33.53.85-.17,1.83-.26,2.93-.26,14.59,0,39.25,13.87,60.4,29.51-1.81,4.31-1.57,9.37,1.01,13.62,2.81,4.62,7.75,7.24,12.86,7.24,2.09,0,4.21-.44,6.23-1.36,21.01-9.58,40.1-14.23,58.35-14.23,9.11,0,18.09,1.22,26.7,3.61.08.02.16.05.25.07,8.41,2.19,17.53,5.54,28.7,10.53,1.99.89,4.07,1.31,6.13,1.31,5.13,0,10.09-2.63,12.89-7.28,2.62-4.35,2.79-9.54.84-13.9,20.99-15.45,45.4-29.12,59.87-29.12,1.09,0,2.07.09,2.92.26,2.75,1.63,6.21,12.49,3.08,33.42Z"/>
  <path class="cls-11" d="m465.66,483.46l-2.27,8.82c-.49,1.88-2.19,3.2-4.15,3.2H192.84c-1.95,0-3.65-1.31-4.14-3.2l-2.28-8.82c-.33-1.29-.05-2.64.76-3.69.82-1.06,2.05-1.66,3.38-1.66h270.95c1.33,0,2.56.6,3.38,1.66.82,1.05,1.09,2.39.75,3.69Z"/>
  <g>
    <path class="cls-7" d="m484.5,183.34c-5.21,32.79-18.76,63.72-34.74,92.67,3.62-6.17,7.12-12.45,10.45-18.83-.58,1.18-1.16,2.35-1.75,3.52-.02.42-.06.84-.09,1.26-.66,7.83-3.05,17.38-5.31,24.9,4.29,2.85,8.41,4.58,14.68,4.82-6.08,6.1-13.52,10.19-19.3,11.06,2.17,1.34,13.79,3.53,18.27,3-7.88,4.47-17.39,6.37-26.34,7.43,2.69,2.09,9.18,4.98,12.69,5.23h0c-2.9,2.3-6.19,3.77-9.58,5.19-4.3,1.68-8.74,3.07-13.25,4.09-22.17,24.62-54.82,36.24-85.89,45.33-5.66,1.66-11.55,2.49-17.46,2.49s-11.79-.83-17.45-2.49c-31.06-9.09-63.72-20.71-85.89-45.33-4.5-1.02-8.94-2.4-13.25-4.09-3.39-1.42-6.68-2.89-9.58-5.18h0c3.52-.25,10-3.15,12.69-5.23-8.95-1.05-18.47-2.96-26.35-7.43,4.48.53,16.11-1.67,18.28-3-5.78-.87-13.23-4.96-19.3-11.06,6.27-.24,10.4-1.97,14.69-4.82-2.27-7.52-4.66-17.07-5.31-24.9,0-.01,0-.04,0-.05,2.57,4.76,5.22,9.46,7.93,14.1-2.75-4.99-5.43-10.04-8.01-15.15,0-.05-3.92-8.03-3.92-7.98-10.56-22.13-18.95-45.32-22.8-69.54-2.22-14.77-4.04-44.09,13.28-50.12,25.22-6.94,71.11,25.88,91.34,42.86-3.29,2.01-6.48,4.18-9.52,6.53,30.34-13.82,62.69-20.49,95.33-11.41,10.55,2.74,20.83,6.78,31.05,11.36-3.13-2.45-6.41-4.71-9.82-6.79,20.42-17.06,65.9-49.46,90.97-42.55,17.33,6.03,15.5,35.35,13.28,50.12Z"/>
    <path class="cls-1" d="m446.53,319.46c-13.11-.38-25.86,4.36-35.44,13.32-4.05,3.79-9.04,7.79-14.97,11.38-18.7,11.32-43.78,22.6-69.57,22.7-25.8-.09-50.87-11.38-69.57-22.7-5.93-3.59-10.92-7.59-14.97-11.38-9.58-8.96-22.33-13.7-35.44-13.32-3.55.11-6.44-.04-7.6-.65l2.82,1.87c3.12,2.52,6.52,4.08,10.09,5.61,4.14,1.65,8.33,2.99,12.48,4.01,22.76,25.39,55.61,36.79,84.66,45.49,5.66,1.7,11.56,2.58,17.52,2.61,5.96-.03,11.86-.91,17.52-2.61,29.05-8.7,61.91-20.1,84.66-45.49,4.15-1.01,8.34-2.35,12.48-4.01,3.57-1.53,6.97-3.09,10.09-5.61l2.82-1.87c-1.16.6-4.04.75-7.6.65Z"/>
    <path class="cls-15" d="m249.95,225.23c11.96-8.15,28.8-10.87,40.9-1.47,3.9,2.92,7.08,6.63,9.48,10.73-3.35-3.36-6.85-6.46-10.75-8.86-12.42-7.91-26.56-5.19-39.64-.4h0Z"/>
    <path class="cls-15" d="m403.81,225.23c-13.08-4.8-27.22-7.52-39.64.4-3.89,2.4-7.39,5.5-10.75,8.86,2.4-4.09,5.58-7.81,9.48-10.73,12.1-9.4,28.95-6.68,40.9,1.47h0Z"/>
    <ellipse class="cls-8" cx="252.55" cy="304.05" rx="14.96" ry="9.54" transform="translate(-24.2 21.85) rotate(-4.73)"/>
    <path class="cls-10" d="m359.23,166.39c0,32.47-21.14,76.77-32.35,76.77-11.21,0-32.35-44.29-32.35-76.77h64.7Z"/>
    <path class="cls-14" d="m335.6,319.35c0,5.73-5.91,13.54-9.05,13.54-3.14,0-9.05-7.81-9.05-13.54l4.58-3.59,2.83-4.46,1.31-4.89h.47l1.5,5.33,2.69,4.25,4.72,3.36Z"/>
    <g>
      <path class="cls-7" d="m294.56,271.87c-.59,13.82-11.49,24.84-24.86,24.84s-24.89-11.65-24.89-26.01,11.14-26.01,24.89-26.01c.7,0,1.4.04,2.09.1-10.79,1.07-19.24,11-19.24,23.12,0,12.82,9.48,23.21,21.16,23.21,10.45,0,19.13-8.31,20.85-19.24Z"/>
      <ellipse class="cls-4" cx="271.28" cy="269.86" rx="24.15" ry="25.18"/>
      <path class="cls-15" d="m296.19,277.4c-.18-1.64-.19-3.3-.07-4.95.05-.73.08-1.46.08-2.2,0-15.48-12.01-28.03-26.82-28.03-7.09,0-13.63,2.97-18.42,7.66-6.46,6.28-11.34,5.04-12.56,4.53.93.51,3.66,2.58,4.22,9.54.12,1.43.11,2.86.01,4.29-.05.66-.07,1.33-.07,2.01,0,15.48,12.01,28.02,26.82,28.02,7.25,0,13.73-2.92,18.56-7.8,6.35-6.05,11.16-4.84,12.38-4.34-.89-.49-3.44-2.41-4.14-8.73Zm-26.49,19.31c-13.74,0-24.89-11.65-24.89-26.01s11.14-26.01,24.89-26.01c.7,0,1.4.04,2.09.1-10.79,1.07-19.24,11-19.24,23.12,0,12.82,9.48,23.21,21.16,23.21,10.45,0,19.13-8.31,20.85-19.24-.59,13.82-11.49,24.84-24.86,24.84Z"/>
      <path class="cls-5" d="m242.73,267.24c-.02.93-.06,1.93-.15,3"/>
      <path class="cls-5" d="m300.35,286.13s-.01,0-.02,0c0,0,.01,0,.02,0,.18.1.29.13.29.13,0,0-.1-.05-.29-.13"/>
      <circle class="cls-7" cx="277.35" cy="257.96" r="9.37"/>
    </g>
    <ellipse class="cls-3" cx="401.21" cy="304.05" rx="9.54" ry="14.96" transform="translate(65.13 678.83) rotate(-85.27)"/>
    <g>
      <path class="cls-7" d="m359.2,271.87c.59,13.82,11.49,24.84,24.86,24.84,13.74,0,24.89-11.65,24.89-26.01,0-14.36-11.14-26.01-24.89-26.01-.7,0-1.4.04-2.09.1,10.79,1.07,19.24,11,19.24,23.12,0,12.82-9.48,23.21-21.16,23.21-10.45,0-19.13-8.31-20.85-19.24Z"/>
      <ellipse class="cls-9" cx="382.48" cy="269.86" rx="24.15" ry="25.18"/>
      <path class="cls-15" d="m353.42,286.13c1.22-.5,6.03-1.71,12.38,4.34,4.82,4.89,11.31,7.8,18.56,7.8,14.81,0,26.82-12.55,26.82-28.02,0-.68-.02-1.34-.07-2.01-.1-1.43-.1-2.87.01-4.29.56-6.97,3.29-9.04,4.22-9.54-1.22.51-6.11,1.75-12.56-4.53-4.8-4.69-11.34-7.66-18.42-7.66-14.81,0-26.82,12.55-26.82,28.03,0,.74.03,1.47.08,2.2.12,1.65.11,3.31-.07,4.95-.7,6.32-3.25,8.24-4.14,8.73Zm5.77-14.26c1.72,10.92,10.4,19.24,20.85,19.24,11.68,0,21.16-10.39,21.16-23.21,0-12.11-8.45-22.05-19.24-23.12.69-.06,1.38-.1,2.09-.1,13.74,0,24.89,11.65,24.89,26.01,0,14.36-11.14,26.01-24.89,26.01-13.37,0-24.27-11.02-24.86-24.84Z"/>
      <path class="cls-5" d="m411.18,270.24c-.09-1.07-.13-2.07-.15-3"/>
      <path class="cls-5" d="m353.4,286.13c-.19.08-.29.13-.29.13,0,0,.1-.03.29-.13,0,0,.01,0,.02,0,0,0-.01,0-.02,0"/>
      <circle class="cls-7" cx="376.41" cy="257.96" r="9.37"/>
    </g>
    <g>
      <path class="cls-15" d="m356.38,315.84s-.1.13-.3.36c-.19.24-.49.57-.89.98-.41.4-.92.88-1.56,1.36-.31.25-.67.49-1.05.74-.38.24-.79.49-1.24.72-.88.46-1.89.89-2.99,1.22-1.11.33-2.31.56-3.57.65-.16,0-.32.02-.48.03h-.24s-.12.02-.12.02h-.03s-.02,0-.02,0h-.04s-.06,0-.06,0c-.15,0-.31,0-.46,0h-.23s-.12,0-.12,0c-.04,0-.08,0-.12,0-.17,0-.33-.02-.5-.03-.17-.01-.34-.02-.5-.04-.16-.02-.33-.04-.49-.06l-.25-.03-.25-.04c-1.32-.2-2.64-.57-3.9-1.07l-.24-.09-.23-.11-.46-.21c-.31-.15-.6-.31-.9-.46-.29-.17-.59-.33-.87-.52-.14-.09-.28-.18-.42-.28l-.21-.14-.2-.15c-.27-.2-.54-.39-.79-.6-.13-.1-.26-.21-.38-.31-.12-.11-.24-.22-.37-.33-.12-.11-.24-.22-.36-.33-.12-.11-.23-.23-.34-.34-.23-.22-.44-.47-.65-.7-.84-.95-1.54-1.95-2.1-2.96-.56-1.01-.99-2.01-1.29-2.96-.04-.12-.08-.24-.11-.35-.03-.12-.06-.23-.1-.35-.06-.23-.13-.45-.17-.68-.05-.22-.09-.44-.14-.65-.04-.21-.07-.42-.1-.62-.01-.1-.03-.2-.04-.29,0-.1-.02-.19-.03-.29-.02-.19-.04-.37-.05-.54-.02-.35-.03-.66-.04-.95,0-.29,0-.54.01-.76,0-.11,0-.21.02-.31,0-.09.01-.18.02-.25.03-.3.04-.47.04-.47,0,0,.02.16.06.46,0,.08.02.16.03.25.01.09.02.19.04.3.04.22.08.46.13.74.06.27.13.58.2.91.04.16.09.33.13.51.02.09.05.18.07.27.03.09.06.18.08.27.06.18.12.37.18.57.07.19.14.39.21.59.07.2.16.41.24.62.04.1.09.21.13.32.05.11.1.21.15.32.39.86.88,1.75,1.48,2.63.6.89,1.31,1.76,2.12,2.58.21.2.41.41.63.61.11.1.22.2.33.3.11.1.23.19.34.29.11.09.23.19.34.28.12.09.24.18.36.27.23.19.48.35.73.53l.19.13.19.12c.13.08.26.16.39.24.13.08.26.15.4.23l.4.23c.27.14.54.28.82.41l.42.19.21.09.21.08c1.13.47,2.32.8,3.5,1.02l.22.04.22.03c.15.02.3.04.45.06.15.03.29.03.44.05.14.01.29.03.43.04.04,0,.07,0,.11.01h.12s.23.02.23.02c.15,0,.31.01.46.02h.06s.03,0,0,0h.01s.03,0,.03,0h.11s.22,0,.22,0c.15,0,.29,0,.44,0,1.16-.02,2.27-.15,3.32-.37,1.05-.22,2.02-.52,2.89-.86.44-.16.85-.36,1.25-.53.19-.1.38-.19.56-.28.05-.02.09-.05.14-.07.04-.02.09-.05.13-.07.09-.05.17-.1.26-.14.34-.18.65-.38.94-.55.15-.08.28-.18.41-.26.13-.09.25-.17.37-.25.12-.08.22-.16.32-.23.1-.07.2-.14.29-.21.18-.12.32-.25.44-.34.24-.19.37-.29.37-.29Z"/>
      <path class="cls-15" d="m296.53,315.86s.13.1.37.29c.12.09.26.22.44.34.09.06.18.13.29.21.1.07.2.15.32.23.12.08.24.16.37.25.13.09.26.18.41.26.29.17.59.37.94.55.08.05.17.09.26.14.04.02.09.05.13.07.05.02.09.05.14.07.18.09.37.18.56.28.4.17.8.37,1.25.53.88.34,1.85.64,2.89.86,1.04.22,2.16.35,3.32.37.14,0,.29,0,.44,0h.22s.11,0,.11,0h.03s.01,0,.01,0c-.04,0,0,0,0,0h.06c.15,0,.31-.02.46-.02h.23s.12-.02.12-.02c.04,0,.07,0,.11-.01.14-.01.29-.03.43-.04.15-.02.29-.02.44-.05.15-.02.3-.04.45-.06l.22-.03.22-.04c1.19-.22,2.37-.55,3.5-1.02l.21-.08.21-.09.42-.19c.28-.13.55-.27.82-.41l.4-.23c.13-.08.27-.14.4-.23.13-.08.26-.16.39-.24l.19-.12.19-.13c.25-.17.5-.34.73-.53.12-.09.24-.18.36-.27.11-.1.23-.19.34-.28.11-.1.23-.19.34-.29.11-.1.22-.2.33-.3.22-.19.42-.4.63-.61.81-.82,1.52-1.7,2.12-2.58.6-.88,1.09-1.78,1.48-2.63.05-.11.1-.21.15-.32.04-.11.09-.21.13-.32.08-.21.17-.41.24-.62.07-.2.14-.4.21-.59.06-.2.12-.39.18-.57.03-.09.06-.18.08-.27.02-.09.05-.18.07-.27.05-.18.09-.34.13-.51.07-.33.14-.63.2-.91.05-.28.09-.52.13-.74.02-.11.03-.21.04-.3.01-.09.02-.18.03-.25.04-.3.06-.46.06-.46,0,0,.01.16.04.47,0,.08.01.16.02.25,0,.09.02.2.02.31,0,.22.01.48.01.76,0,.29-.02.6-.04.95-.02.17-.03.35-.05.54,0,.09-.02.19-.03.29-.01.1-.03.19-.04.29-.03.2-.06.4-.1.62-.04.21-.09.43-.14.65-.04.22-.11.44-.17.68-.03.12-.06.23-.1.35-.04.12-.08.23-.11.35-.31.95-.73,1.96-1.29,2.96-.56,1.01-1.26,2.01-2.1,2.96-.21.23-.42.48-.65.7-.11.11-.23.23-.34.34-.11.11-.24.22-.36.33-.12.11-.24.22-.37.33-.13.1-.25.21-.38.31-.25.21-.52.4-.79.6l-.2.15-.21.14c-.14.09-.28.18-.42.28-.28.18-.58.34-.87.52-.3.15-.6.32-.9.46l-.46.21-.23.11-.24.09c-1.26.51-2.58.87-3.9,1.07l-.25.04-.25.03c-.16.02-.33.04-.49.06-.16.02-.33.03-.5.04-.17,0-.33.02-.5.03-.04,0-.08,0-.12,0h-.12s-.23,0-.23,0c-.15,0-.31,0-.46,0h-.06s-.04,0-.04,0h-.02s-.03,0-.03,0h-.12s-.24-.02-.24-.02c-.16,0-.32-.02-.48-.03-1.26-.09-2.47-.32-3.57-.65-1.11-.33-2.11-.75-2.99-1.22-.44-.23-.85-.48-1.24-.72-.38-.26-.73-.49-1.05-.74-.64-.48-1.15-.96-1.56-1.36-.4-.41-.7-.74-.89-.98-.19-.24-.3-.36-.3-.36Z"/>
    </g>
    <g>
      <path class="cls-15" d="m337.06,285.73c-2.66-2.66-6.99-2.66-9.65,0l-.95.95-.95-.95c-2.66-2.66-6.98-2.66-9.65,0-.85.86-1.44,1.88-1.75,3.03-.16.57-.24,1.17-.24,1.79,0,1.82.71,3.53,1.99,4.82l10.6,10.57,10.6-10.57c.3-.3.56-.62.78-.94,1.89-2.72,1.56-6.37-.78-8.71Zm-.81,7.62h0c-.14.24-.33.45-.54.66l-9.24,9.23-9.23-9.23c-.92-.91-1.43-2.15-1.43-3.46,0-.44.06-.88.17-1.28.22-.84.65-1.57,1.26-2.18.95-.95,2.21-1.44,3.46-1.44s2.51.48,3.47,1.44l2.31,2.31,2.31-2.31c1.92-1.92,5.02-1.92,6.93,0,1.68,1.68,1.91,4.29.55,6.25Z"/>
      <path class="cls-13" d="m335.1,294.51h0c-.13.21-.29.4-.48.59l-8.16,8.14-8.15-8.14c-.82-.81-1.27-1.9-1.27-3.05,0-.39.05-.77.15-1.13.2-.74.57-1.39,1.11-1.92.84-.84,1.95-1.27,3.05-1.27s2.22.42,3.06,1.27l2.04,2.04,2.04-2.04c1.69-1.69,4.43-1.69,6.12,0,1.48,1.48,1.68,3.79.48,5.52Z"/>
    </g>
    <path class="cls-15" d="m463.1,253.19c12.45-24.63,20.51-47.31,24.57-69.34,3.03-17.33,5.13-47.54-14.97-55.04-2.99-.94-6.34-1.44-9.94-1.44-15.27,0-35.5,8.1-61.82,24.76-8.76,5.63-17.76,12.15-26.8,19.37-4.36-2.28-8.87-4.23-13.36-5.84-10.31-3.87-21.37-5.82-32.83-5.82-16.66,0-33.46,4.14-48.62,11.96-8.93-7.17-18.32-13.98-27.19-19.67-26.33-16.66-46.53-24.76-61.8-24.76-3.63,0-6.98.49-9.99,1.44-20.06,7.49-17.95,37.71-14.92,55.06,4.12,22.42,12.39,45.52,25.27,70.69.3,8.59,2.28,19.76,5.43,30.73-3.48,2.19-9.45,3.63-16.47,3.93l-1.61.09,1.12,1.14c.06.09,6.48,6.74,15.16,11.38-3.76.41-6.93.58-10.26.58-1.7,0-3.44-.04-5.35-.15l-2.49-.11,5.35,3.76c5.99,4.23,13.53,7.11,22.96,8.76-2.83.94-6.59,1.7-9.04,1.72h-1.82l1.33,1.25c5.84,5.37,14.9,9.64,26.95,12.67,12.13,13.66,28.5,23.04,41.4,29.68,12,6.16,25.81,11.77,41.06,16.66,2.28.73,4.66,1.42,7.3,2.08,4.94,1.18,10.05,1.8,15.16,1.83,5.13-.02,10.24-.64,15.18-1.83,2.64-.67,5.03-1.35,7.3-2.08,15.27-4.9,29.08-10.5,41.04-16.66,12.93-6.64,29.29-16,41.42-29.68,12.05-3.03,21.11-7.3,26.95-12.67l1.33-1.25h-1.83c-2.45-.02-6.23-.77-9.04-1.72,9.43-1.65,16.94-4.53,22.96-8.76l5.35-3.76-2.49.11c-1.91.11-3.65.15-5.35.15-3.33,0-6.51-.17-10.27-.58,8.65-4.64,15.1-11.3,15.16-11.38l1.12-1.14-1.61-.09c-7.04-.3-12.99-1.74-16.47-3.93,3.18-11.06,5.15-22.29,5.43-30.86.02-.41.02-.84.04-1.25Zm-4.72,8.78c-.66,7.82-3.05,17.37-5.32,24.89,4.29,2.86,8.42,4.6,14.69,4.83-6.08,6.1-13.53,10.18-19.31,11.06,2.17,1.33,13.81,3.52,18.27,3.01-7.86,4.47-17.39,6.38-26.33,7.43,2.68,2.08,9.15,4.96,12.67,5.22-2.9,2.3-6.19,3.76-9.58,5.2-4.29,1.68-8.74,3.07-13.25,4.08-22.18,24.61-54.82,36.25-85.89,45.33-5.65,1.65-11.55,2.49-17.46,2.49s-11.79-.84-17.44-2.49c-31.07-9.08-63.71-20.72-85.89-45.33-4.51-1.01-8.95-2.41-13.25-4.08-3.39-1.44-6.68-2.9-9.58-5.2,3.52-.26,9.99-3.14,12.67-5.22-8.93-1.05-18.47-2.96-26.35-7.43,4.49.52,16.13-1.67,18.3-3.01-5.78-.88-13.23-4.96-19.3-11.06,6.27-.24,10.39-1.98,14.69-4.83-2.28-7.52-4.66-17.07-5.33-24.89v-.06c2.58,4.77,5.22,9.47,7.92,14.11-2.75-4.98-5.41-10.05-8.01-15.16,0-.04-3.89-7.99-3.91-7.99-10.57-22.12-18.96-45.31-22.81-69.53-2.23-14.77-4.04-44.09,13.29-50.12,25.21-6.94,71.1,25.9,91.33,42.86-3.29,2.02-6.49,4.19-9.51,6.55,30.34-13.83,62.68-20.51,95.32-11.42,10.56,2.75,20.83,6.79,31.05,11.36-3.14-2.45-6.42-4.7-9.81-6.79,20.4-17.07,65.9-49.45,90.96-42.56,17.33,6.03,15.5,35.35,13.29,50.12-5.22,32.79-18.77,63.71-34.74,92.68,2.99-5.11,5.88-10.33,8.7-15.57-.02.41-.06,1.1-.09,1.52Z"/>
    <path class="cls-5" d="m200.7,318.42h0"/>
    <path class="cls-5" d="m453.06,318.41h0"/>
    <path class="cls-6" d="m211.6,207.06c.79-6.39,11.61-15.69,11.61-15.69-7.24-.25-17.75,11.28-17.75,11.28,4.02-18.95,18.8-18.42,18.8-18.42-7.4-4.43-24.15-2.08-24.15-2.08,15.09-9.68,31.32-4.96,31.32-4.96-12.7-9.31-30.66-10.75-30.66-10.75,17.08-4.01,32.48,5.76,32.48,5.76l2.47,1.99c-18.4-17.17-37.67-28.31-45.73-21.84-10.66,8.57-6.54,46.34,15.19,91.9,2.79-19.22,8.03-33.65,15.34-44.07-4.52,3.06-8.93,6.87-8.93,6.87Z"/>
    <path class="cls-6" d="m441.31,207.06c-.79-6.39-11.61-15.69-11.61-15.69,7.24-.25,17.75,11.28,17.75,11.28-4.02-18.95-18.8-18.42-18.8-18.42,7.4-4.43,24.15-2.08,24.15-2.08-15.09-9.68-31.32-4.96-31.32-4.96,12.7-9.31,30.66-10.75,30.66-10.75-17.08-4.01-32.48,5.76-32.48,5.76l-2.47,1.99c18.4-17.17,37.67-28.31,45.73-21.84,10.66,8.57,6.54,46.34-15.19,91.9-2.79-19.22-8.03-33.65-15.34-44.07,4.52,3.06,8.93,6.87,8.93,6.87Z"/>
  </g>
  <path class="cls-11" d="m453.83,352.48v109.05c0,7.14-5.81,12.96-12.96,12.97h-229.66c-7.14-.01-12.96-5.83-12.96-12.97v-109.05c0-7.16,5.82-12.98,12.98-12.98h229.63c7.15,0,12.97,5.82,12.97,12.98Z"/>
  <path class="cls-12" d="m447.46,353.68v113.56l-198.71-121.68h190.59c4.47,0,8.12,3.65,8.12,8.12Z"/>
  <path class="cls-15" d="m467.76,477.56c-1.51-1.95-3.78-3.06-6.24-3.06h-10.36c3.82-3.05,6.28-7.72,6.28-12.97v-109.05c0-9.15-7.44-16.59-16.58-16.59h-229.63c-9.15,0-16.59,7.44-16.59,16.59v109.05c0,5.25,2.47,9.92,6.29,12.97h-10.36c-2.45,0-4.73,1.11-6.23,3.06-1.51,1.95-2.02,4.42-1.41,6.8l2.28,8.82c.9,3.48,4.03,5.92,7.63,5.92h266.4c3.6,0,6.74-2.43,7.64-5.92l2.27-8.82c.17-.66.25-1.32.25-1.99,0-1.72-.57-3.41-1.65-4.81Zm-8.52,17.92H192.84c-1.95,0-3.65-1.31-4.14-3.2l-2.28-8.82c-.33-1.29-.05-2.64.76-3.69.82-1.06,2.05-1.66,3.38-1.66h270.95c1.33,0,2.56.6,3.38,1.66.82,1.05,1.09,2.39.75,3.69l-2.27,8.82c-.49,1.88-2.19,3.2-4.15,3.2Zm-260.99-143c0-7.16,5.82-12.98,12.98-12.98h229.63c7.15,0,12.97,5.82,12.97,12.98v109.05c0,7.14-5.81,12.96-12.96,12.97h-229.66c-7.14-.01-12.96-5.83-12.96-12.97v-109.05Z"/>
  <g>
    <path class="cls-7" d="m338.15,421.13c-.81,1.21-1.84,2.11-3.27,2.5-.98.26-1.96.25-2.95.08-.42-.07-.83-.16-1.23-.28-.65-.18-1.29-.41-1.91-.67-.12-.05-.24-.1-.37-.15-.59-.26-1.18-.53-1.76-.82-.2-.1-.37-.16-.59-.15-.32,0-.63.13-.91.27-1.25.65-2.56,1.2-3.93,1.56-1.33.36-2.67.52-4.03.16-1.42-.38-2.46-1.27-3.25-2.47-.29-.43-.52-.89-.67-1.39-.08-.26-.03-.52-.07-.78-.24-1.56.33-2.92,1.06-4.22,1.13-2.01,2.68-3.69,4.38-5.22,1.61-1.45,3.32-2.75,5.25-3.75.38-.2.78-.35,1.18-.52.79-.34,1.54-.17,2.29.14,1.59.67,3,1.64,4.35,2.69,1.68,1.31,3.31,2.87,4.64,4.53,0,0,0,0,0,0,0,0,0,0,0,0,0,0,0,0,0,0,0,.01-.01-.02,0,0,0,.01,0-.01,0,0,.05.06-.08-.1,0,0,0,0,0,0,0,0,.3.39.95,1.25,1.12,1.58.63,1.01,1.14,2.07,1.38,3.26.26,1.32.05,2.54-.71,3.67Z"/>
    <path class="cls-7" d="m336.36,412.63c-.08-.1.05.06,0,0,.05.06-.05-.06,0,0,.02.02-.02-.02,0,0Z"/>
    <path class="cls-7" d="m325.03,398.6c0,1.22-.28,2.66-1.14,3.94-.82,1.23-1.95,1.94-3.47,1.83-.99-.07-1.83-.53-2.56-1.17-1.26-1.11-2.01-2.53-2.46-4.12-.45-1.6-.55-3.21-.18-4.84.21-.93.56-1.79,1.15-2.54,1.28-1.62,3.23-1.98,5-.92,1.24.74,2.07,1.85,2.68,3.13.66,1.39.98,2.86.98,4.7Z"/>
    <path class="cls-7" d="m336.95,396.24c-.06,2.38-.7,4.57-2.3,6.4-.71.81-1.56,1.42-2.63,1.65-1.44.31-2.63-.16-3.59-1.25-.8-.91-1.22-2-1.39-3.19-.4-2.82.18-5.41,1.95-7.68.68-.88,1.54-1.56,2.65-1.86,1.54-.42,2.8.05,3.82,1.23.86.99,1.24,2.18,1.41,3.46.06.41.09.82.08,1.24Z"/>
    <path class="cls-7" d="m345.24,405.56c-.34,1.83-1.14,3.42-2.54,4.68-.72.66-1.55,1.13-2.53,1.25-1.51.18-2.77-.52-3.47-1.91-.39-.77-.58-1.64-.58-3.09.12-2.14,1-4.32,3.02-5.96.72-.58,1.54-.95,2.48-.98,1.47-.06,2.68.76,3.29,2.21.52,1.23.56,2.51.32,3.8Z"/>
    <path class="cls-7" d="m306.84,405.56c.34,1.83,1.14,3.42,2.54,4.68.72.66,1.55,1.13,2.53,1.25,1.51.18,2.77-.52,3.47-1.91.39-.77.58-1.64.58-3.09-.12-2.14-1-4.32-3.02-5.96-.72-.58-1.54-.95-2.48-.98-1.47-.06-2.68.76-3.29,2.21-.52,1.23-.56,2.51-.32,3.8Z"/>
    <polygon class="cls-7" points="336.36 412.63 336.36 412.63 336.36 412.63 336.36 412.63"/>
    <path class="cls-7" d="m336.36,412.63s0-.01,0,0c0,0,0,0,0,0Z"/>
  </g>
</svg>